<?xml version="1.0" encoding="utf-8"?>
<!-- Generator: Adobe Illustrator 24.3.0, SVG Export Plug-In . SVG Version: 6.00 Build 0)  -->
<svg version="1.1" id="Layer_1" xmlns="http://www.w3.org/2000/svg" xmlns:xlink="http://www.w3.org/1999/xlink" x="0px" y="0px"
	 viewBox="0 0 34.8 34.8" style="enable-background:new 0 0 34.8 34.8;" xml:space="preserve">
<style type="text/css">
	.st0{fill:none;stroke:#FAFAFA;stroke-width:3;stroke-linecap:round;stroke-linejoin:round;}
</style>
<polyline class="st0" points="6.6,2 1.9,2 1.9,6.6 "/>
<polyline class="st0" points="33,6.6 33,1.9 28.3,1.9 "/>
<g>
	<polyline class="st0" points="28.2,32.8 32.9,32.8 32.9,28.1 	"/>
	<polyline class="st0" points="1.9,28.2 1.9,32.9 6.5,32.9 	"/>
</g>
<g>
	<path class="st0" d="M10.3,11c-1.9,0-3.5,1.6-3.5,3.5v6c0,1.9,1.6,3.5,3.5,3.5c1.9,0,3.5-1.6,3.5-3.5v-6C13.7,12.5,12.2,11,10.3,11
		z"/>
	<path class="st0" d="M24.5,11c-1.9,0-3.5,1.6-3.5,3.5v6c0,1.9,1.6,3.5,3.5,3.5c1.9,0,3.5-1.6,3.5-3.5v-6C28,12.5,26.4,11,24.5,11z"
		/>
	<path class="st0" d="M17.3,24c0,2-1.4,3-1.4,3"/>
</g>
</svg>
